SubSource-HROTx_VROTdd_SLENn_SANGx.ufo
<glyph name="dollar" format="2">
  <advance width="354"/>
  <unicode hex="0024"/>
  <outline>
    <contour>
      <point x="245" y="726" type="curve" smooth="yes"/>
      <point x="243" y="684"/>
      <point x="237" y="643"/>
      <point x="251" y="637" type="curve" smooth="yes"/>
      <point x="270" y="628"/>
      <point x="448" y="476"/>
      <point x="218" y="553" type="curve" smooth="yes"/>
      <point x="210" y="556"/>
      <point x="201" y="557"/>
      <point x="193" y="557" type="curve" smooth="yes"/>
      <point x="156" y="557"/>
      <point x="117" y="536"/>
      <point x="117" y="478" type="curve" smooth="yes"/>
      <point x="117" y="427"/>
      <point x="166" y="403"/>
      <point x="205" y="380" type="curve" smooth="yes"/>
      <point x="277" y="340"/>
      <point x="343" y="296"/>
      <point x="343" y="198" type="curve" smooth="yes"/>
      <point x="343" y="78"/>
      <point x="246" y="26"/>
      <point x="169" y="26" type="curve" smooth="yes"/>
      <point x="152" y="26"/>
      <point x="134" y="29"/>
      <point x="119" y="35" type="curve" smooth="yes"/>
      <point x="101" y="41"/>
      <point x="-79" y="211"/>
      <point x="151" y="119" type="curve" smooth="yes"/>
      <point x="203" y="98"/>
      <point x="216" y="76"/>
      <point x="208" y="-60" type="curve" smooth="yes"/>
      <point x="204" y="-127"/>
      <point x="114" y="-122"/>
      <point x="118" y="-54" type="curve" smooth="yes"/>
      <point x="119" y="-33"/>
      <point x="125" y="32"/>
      <point x="117" y="35" type="curve" smooth="yes"/>
      <point x="99" y="43"/>
      <point x="-81" y="198"/>
      <point x="149" y="119" type="curve" smooth="yes"/>
      <point x="155" y="117"/>
      <point x="162" y="116"/>
      <point x="169" y="116" type="curve" smooth="yes"/>
      <point x="208" y="116"/>
      <point x="253" y="138"/>
      <point x="253" y="198" type="curve" smooth="yes"/>
      <point x="253" y="254"/>
      <point x="202" y="279"/>
      <point x="161" y="302" type="curve" smooth="yes"/>
      <point x="89" y="343"/>
      <point x="27" y="385"/>
      <point x="27" y="478" type="curve" smooth="yes"/>
      <point x="27" y="596"/>
      <point x="118" y="647"/>
      <point x="193" y="647" type="curve" smooth="yes"/>
      <point x="213" y="647"/>
      <point x="232" y="644"/>
      <point x="246" y="639" type="curve" smooth="yes"/>
      <point x="265" y="632"/>
      <point x="442" y="448"/>
      <point x="213" y="555" type="curve" smooth="yes"/>
      <point x="164" y="578"/>
      <point x="147" y="588"/>
      <point x="155" y="730" type="curve" smooth="yes"/>
      <point x="159" y="798"/>
      <point x="249" y="793"/>
    </contour>
  </outline>
</glyph>
<glyph name="plus" format="2">
  <advance width="382"/>
  <unicode hex="002B"/>
  <outline>
    <contour>
      <point x="236" y="504" type="curve" smooth="yes"/>
      <point x="236" y="114" type="line" smooth="yes"/>
      <point x="236" y="46"/>
      <point x="146" y="47"/>
      <point x="146" y="114" type="curve" smooth="yes"/>
      <point x="146" y="504" type="line" smooth="yes"/>
      <point x="146" y="572"/>
      <point x="236" y="572"/>
    </contour>
    <contour>
      <point x="325" y="263" type="curve" smooth="yes"/>
      <point x="57" y="263" type="line" smooth="yes"/>
      <point x="-11" y="263"/>
      <point x="-10" y="353"/>
      <point x="57" y="353" type="curve" smooth="yes"/>
      <point x="325" y="353" type="line" smooth="yes"/>
      <point x="393" y="353"/>
      <point x="393" y="263"/>
    </contour>
  </outline>
</glyph>
<glyph name="one" format="2">
  <advance width="244"/>
  <unicode hex="0031"/>
  <outline>
    <contour>
      <point x="22" y="628" type="curve" smooth="yes"/>
      <point x="59" y="651"/>
      <point x="99" y="667"/>
      <point x="127" y="667" type="curve" smooth="yes"/>
      <point x="165" y="667"/>
      <point x="200" y="666"/>
      <point x="200" y="470" type="curve" smooth="yes"/>
      <point x="200" y="321"/>
      <point x="200" y="255"/>
      <point x="200" y="165" type="curve" smooth="yes"/>
      <point x="200" y="105"/>
      <point x="200" y="69"/>
      <point x="200" y="40" type="curve" smooth="yes"/>
      <point x="200" y="-28"/>
      <point x="110" y="-27"/>
      <point x="110" y="40" type="curve" smooth="yes"/>
      <point x="110" y="83"/>
      <point x="110" y="125"/>
      <point x="110" y="165" type="curve" smooth="yes"/>
      <point x="110" y="299"/>
      <point x="110" y="370"/>
      <point x="110" y="470" type="curve" smooth="yes"/>
      <point x="110" y="479"/>
      <point x="129" y="577"/>
      <point x="127" y="577" type="curve" smooth="yes"/>
      <point x="116" y="577"/>
      <point x="83" y="560"/>
      <point x="70" y="552" type="curve" smooth="yes"/>
      <point x="12" y="516"/>
      <point x="-35" y="593"/>
    </contour>
  </outline>
</glyph>
<glyph name="E" format="2">
  <advance width="369"/>
  <unicode hex="0045"/>
  <outline>
    <contour>
      <point x="299" y="590" type="curve" smooth="yes"/>
      <point x="256" y="590"/>
      <point x="232" y="590"/>
      <point x="207" y="590" type="curve" smooth="yes"/>
      <point x="177" y="590"/>
      <point x="167" y="590"/>
      <point x="145" y="590" type="curve" smooth="yes"/>
      <point x="131" y="590"/>
      <point x="133" y="564"/>
      <point x="133" y="544" type="curve" smooth="yes"/>
      <point x="133" y="489"/>
      <point x="133" y="451"/>
      <point x="133" y="426" type="curve" smooth="yes"/>
      <point x="133" y="423"/>
      <point x="131" y="395"/>
      <point x="133" y="395" type="curve" smooth="yes"/>
      <point x="171" y="395"/>
      <point x="210" y="395"/>
      <point x="239" y="395" type="curve" smooth="yes"/>
      <point x="254" y="395"/>
      <point x="462" y="305"/>
      <point x="239" y="305" type="curve" smooth="yes"/>
      <point x="201" y="305"/>
      <point x="164" y="305"/>
      <point x="134" y="305" type="curve" smooth="yes"/>
      <point x="131" y="305"/>
      <point x="133" y="300"/>
      <point x="133" y="297" type="curve" smooth="yes"/>
      <point x="133" y="226"/>
      <point x="133" y="152"/>
      <point x="133" y="122" type="curve" smooth="yes"/>
      <point x="133" y="102"/>
      <point x="131" y="90"/>
      <point x="144" y="90" type="curve" smooth="yes"/>
      <point x="170" y="90"/>
      <point x="179" y="90"/>
      <point x="203" y="90" type="curve" smooth="yes"/>
      <point x="236" y="90"/>
      <point x="266" y="90"/>
      <point x="299" y="90" type="curve" smooth="yes"/>
      <point x="367" y="90"/>
      <point x="367" y="0"/>
      <point x="299" y="0" type="curve" smooth="yes"/>
      <point x="250" y="0"/>
      <point x="225" y="0"/>
      <point x="203" y="0" type="curve" smooth="yes"/>
      <point x="168" y="0"/>
      <point x="161" y="0"/>
      <point x="144" y="0" type="curve" smooth="yes"/>
      <point x="85" y="0"/>
      <point x="43" y="30"/>
      <point x="43" y="122" type="curve" smooth="yes"/>
      <point x="43" y="167"/>
      <point x="43" y="250"/>
      <point x="43" y="297" type="curve" smooth="yes"/>
      <point x="43" y="363"/>
      <point x="76" y="395"/>
      <point x="134" y="395" type="curve" smooth="yes"/>
      <point x="179" y="395"/>
      <point x="214" y="395"/>
      <point x="239" y="395" type="curve" smooth="yes"/>
      <point x="254" y="395"/>
      <point x="462" y="305"/>
      <point x="239" y="305" type="curve" smooth="yes"/>
      <point x="196" y="305"/>
      <point x="158" y="305"/>
      <point x="133" y="305" type="curve" smooth="yes"/>
      <point x="86" y="305"/>
      <point x="43" y="350"/>
      <point x="43" y="426" type="curve" smooth="yes"/>
      <point x="43" y="463"/>
      <point x="43" y="507"/>
      <point x="43" y="544" type="curve" smooth="yes"/>
      <point x="43" y="641"/>
      <point x="76" y="680"/>
      <point x="145" y="680" type="curve" smooth="yes"/>
      <point x="178" y="680"/>
      <point x="187" y="680"/>
      <point x="207" y="680" type="curve" smooth="yes"/>
      <point x="245" y="680"/>
      <point x="270" y="680"/>
      <point x="299" y="680" type="curve" smooth="yes"/>
      <point x="367" y="680"/>
      <point x="367" y="590"/>
    </contour>
  </outline>
</glyph>
<glyph name="J" format="2">
  <advance width="316"/>
  <unicode hex="004A"/>
  <outline>
    <contour>
      <point x="73" y="108" type="curve" smooth="yes"/>
      <point x="95" y="93"/>
      <point x="115" y="85"/>
      <point x="133" y="85" type="curve" smooth="yes"/>
      <point x="172" y="85"/>
      <point x="189" y="139"/>
      <point x="189" y="204" type="curve" smooth="yes"/>
      <point x="189" y="322"/>
      <point x="189" y="387"/>
      <point x="189" y="466" type="curve" smooth="yes"/>
      <point x="189" y="537"/>
      <point x="189" y="599"/>
      <point x="189" y="640" type="curve" smooth="yes"/>
      <point x="189" y="708"/>
      <point x="279" y="708"/>
      <point x="279" y="640" type="curve" smooth="yes"/>
      <point x="279" y="579"/>
      <point x="279" y="513"/>
      <point x="279" y="466" type="curve" smooth="yes"/>
      <point x="279" y="348"/>
      <point x="279" y="283"/>
      <point x="279" y="204" type="curve" smooth="yes"/>
      <point x="279" y="66"/>
      <point x="216" y="-5"/>
      <point x="133" y="-5" type="curve" smooth="yes"/>
      <point x="101" y="-5"/>
      <point x="65" y="5"/>
      <point x="23" y="32" type="curve" smooth="yes"/>
      <point x="-33" y="69"/>
      <point x="16" y="145"/>
    </contour>
  </outline>
</glyph>
<glyph name="L" format="2">
  <advance width="352"/>
  <unicode hex="004C"/>
  <outline>
    <contour>
      <point x="292" y="0" type="curve" smooth="yes"/>
      <point x="241" y="0"/>
      <point x="198" y="0"/>
      <point x="156" y="0" type="curve" smooth="yes"/>
      <point x="65" y="0"/>
      <point x="43" y="37"/>
      <point x="43" y="203" type="curve" smooth="yes"/>
      <point x="43" y="332"/>
      <point x="43" y="433"/>
      <point x="43" y="520" type="curve" smooth="yes"/>
      <point x="43" y="569"/>
      <point x="43" y="607"/>
      <point x="43" y="640" type="curve" smooth="yes"/>
      <point x="43" y="708"/>
      <point x="133" y="708"/>
      <point x="133" y="640" type="curve" smooth="yes"/>
      <point x="133" y="591"/>
      <point x="133" y="553"/>
      <point x="133" y="520" type="curve" smooth="yes"/>
      <point x="133" y="391"/>
      <point x="133" y="290"/>
      <point x="133" y="203" type="curve" smooth="yes"/>
      <point x="133" y="146"/>
      <point x="125" y="90"/>
      <point x="156" y="90" type="curve" smooth="yes"/>
      <point x="218" y="90"/>
      <point x="258" y="90"/>
      <point x="292" y="90" type="curve" smooth="yes"/>
      <point x="360" y="90"/>
      <point x="360" y="0"/>
    </contour>
  </outline>
</glyph>
<glyph name="Y" format="2">
  <advance width="412"/>
  <unicode hex="0059"/>
  <outline>
    <contour>
      <point x="397" y="623" type="curve" smooth="yes"/>
      <point x="382" y="585"/>
      <point x="368" y="547"/>
      <point x="353" y="509" type="curve" smooth="yes"/>
      <point x="326" y="439"/>
      <point x="306" y="388"/>
      <point x="277" y="313" type="curve" smooth="yes"/>
      <point x="263" y="276"/>
      <point x="251" y="237"/>
      <point x="251" y="188" type="curve" smooth="yes"/>
      <point x="251" y="161"/>
      <point x="251" y="143"/>
      <point x="251" y="111" type="curve" smooth="yes"/>
      <point x="251" y="80"/>
      <point x="161" y="-169"/>
      <point x="161" y="115" type="curve" smooth="yes"/>
      <point x="161" y="155"/>
      <point x="161" y="170"/>
      <point x="161" y="189" type="curve" smooth="yes"/>
      <point x="161" y="293"/>
      <point x="140" y="304"/>
      <point x="102" y="396" type="curve" smooth="yes"/>
      <point x="71" y="470"/>
      <point x="54" y="521"/>
      <point x="15" y="624" type="curve" smooth="yes"/>
      <point x="-9" y="687"/>
      <point x="75" y="719"/>
      <point x="99" y="656" type="curve" smooth="yes"/>
      <point x="138" y="555"/>
      <point x="155" y="504"/>
      <point x="186" y="430" type="curve" smooth="yes"/>
      <point x="230" y="321"/>
      <point x="251" y="312"/>
      <point x="251" y="189" type="curve" smooth="yes"/>
      <point x="251" y="161"/>
      <point x="251" y="142"/>
      <point x="251" y="115" type="curve" smooth="yes"/>
      <point x="251" y="83"/>
      <point x="161" y="-169"/>
      <point x="161" y="111" type="curve" smooth="yes"/>
      <point x="161" y="159"/>
      <point x="161" y="170"/>
      <point x="161" y="188" type="curve" smooth="yes"/>
      <point x="161" y="249"/>
      <point x="175" y="300"/>
      <point x="193" y="345" type="curve" smooth="yes"/>
      <point x="220" y="416"/>
      <point x="240" y="467"/>
      <point x="269" y="543" type="curve" smooth="yes"/>
      <point x="284" y="581"/>
      <point x="298" y="619"/>
      <point x="313" y="657" type="curve" smooth="yes"/>
      <point x="338" y="719"/>
      <point x="422" y="686"/>
    </contour>
  </outline>
</glyph>
<glyph name="h" format="2">
  <advance width="402"/>
  <unicode hex="0068"/>
  <outline>
    <contour>
      <point x="285" y="40" type="curve" smooth="yes"/>
      <point x="285" y="95"/>
      <point x="285" y="138"/>
      <point x="285" y="175" type="curve" smooth="yes"/>
      <point x="285" y="223"/>
      <point x="285" y="262"/>
      <point x="285" y="293" type="curve" smooth="yes"/>
      <point x="285" y="367"/>
      <point x="263" y="418"/>
      <point x="220" y="418" type="curve" smooth="yes"/>
      <point x="160" y="418"/>
      <point x="124" y="355"/>
      <point x="124" y="258" type="curve" smooth="yes"/>
      <point x="124" y="190"/>
      <point x="124" y="169"/>
      <point x="124" y="130" type="curve" smooth="yes"/>
      <point x="124" y="88"/>
      <point x="34" y="-186"/>
      <point x="34" y="130" type="curve" smooth="yes"/>
      <point x="34" y="214"/>
      <point x="34" y="522"/>
      <point x="34" y="543" type="curve" smooth="yes"/>
      <point x="34" y="623"/>
      <point x="34" y="660"/>
      <point x="34" y="693" type="curve" smooth="yes"/>
      <point x="34" y="761"/>
      <point x="124" y="761"/>
      <point x="124" y="693" type="curve" smooth="yes"/>
      <point x="124" y="644"/>
      <point x="124" y="597"/>
      <point x="124" y="543" type="curve" smooth="yes"/>
      <point x="124" y="511"/>
      <point x="124" y="186"/>
      <point x="124" y="130" type="curve" smooth="yes"/>
      <point x="124" y="88"/>
      <point x="34" y="-186"/>
      <point x="34" y="130" type="curve" smooth="yes"/>
      <point x="34" y="188"/>
      <point x="34" y="212"/>
      <point x="34" y="258" type="curve" smooth="yes"/>
      <point x="34" y="422"/>
      <point x="118" y="508"/>
      <point x="220" y="508" type="curve" smooth="yes"/>
      <point x="305" y="508"/>
      <point x="375" y="438"/>
      <point x="375" y="293" type="curve" smooth="yes"/>
      <point x="375" y="247"/>
      <point x="375" y="207"/>
      <point x="375" y="175" type="curve" smooth="yes"/>
      <point x="375" y="120"/>
      <point x="375" y="77"/>
      <point x="375" y="40" type="curve" smooth="yes"/>
      <point x="375" y="-28"/>
      <point x="285" y="-27"/>
    </contour>
  </outline>
</glyph>
<glyph name="x" format="2">
  <advance width="353"/>
  <unicode hex="0078"/>
  <outline>
    <contour>
      <point x="103" y="481" type="curve" smooth="yes"/>
      <point x="120" y="451"/>
      <point x="137" y="419"/>
      <point x="152" y="392" type="curve" smooth="yes"/>
      <point x="178" y="346"/>
      <point x="240" y="233"/>
      <point x="291" y="140" type="curve" smooth="yes"/>
      <point x="307" y="111"/>
      <point x="321" y="85"/>
      <point x="334" y="61" type="curve" smooth="yes"/>
      <point x="366" y="2"/>
      <point x="287" y="-41"/>
      <point x="254" y="19" type="curve" smooth="yes"/>
      <point x="241" y="43"/>
      <point x="227" y="69"/>
      <point x="213" y="96" type="curve" smooth="yes"/>
      <point x="159" y="194"/>
      <point x="98" y="304"/>
      <point x="74" y="348" type="curve" smooth="yes"/>
      <point x="59" y="375"/>
      <point x="42" y="407"/>
      <point x="25" y="435" type="curve" smooth="yes"/>
      <point x="-9" y="493"/>
      <point x="69" y="539"/>
    </contour>
    <contour>
      <point x="330" y="436" type="curve" smooth="yes"/>
      <point x="314" y="408"/>
      <point x="298" y="377"/>
      <point x="282" y="350" type="curve" smooth="yes"/>
      <point x="234" y="265"/>
      <point x="186" y="176"/>
      <point x="149" y="110" type="curve" smooth="yes"/>
      <point x="132" y="81"/>
      <point x="114" y="49"/>
      <point x="97" y="18" type="curve" smooth="yes"/>
      <point x="65" y="-41"/>
      <point x="-14" y="2"/>
      <point x="19" y="62" type="curve" smooth="yes"/>
      <point x="36" y="93"/>
      <point x="54" y="125"/>
      <point x="71" y="154" type="curve" smooth="yes"/>
      <point x="109" y="222"/>
      <point x="157" y="311"/>
      <point x="204" y="396" type="curve" smooth="yes"/>
      <point x="220" y="423"/>
      <point x="236" y="452"/>
      <point x="252" y="480" type="curve" smooth="yes"/>
      <point x="285" y="539"/>
      <point x="364" y="494"/>
    </contour>
    <contour>
      <point x="103" y="481" type="curve" smooth="yes"/>
      <point x="120" y="451"/>
      <point x="136" y="421"/>
      <point x="152" y="392" type="curve" smooth="yes"/>
      <point x="162" y="374"/>
      <point x="172" y="355"/>
      <point x="182" y="337" type="curve" smooth="yes"/>
      <point x="218" y="271"/>
      <point x="218" y="233"/>
      <point x="182" y="171" type="curve" smooth="yes"/>
      <point x="171" y="150"/>
      <point x="160" y="130"/>
      <point x="148" y="109" type="curve" smooth="yes"/>
      <point x="133" y="85"/>
      <point x="114" y="48"/>
      <point x="97" y="18" type="curve" smooth="yes"/>
      <point x="65" y="-41"/>
      <point x="-14" y="2"/>
      <point x="19" y="62" type="curve" smooth="yes"/>
      <point x="36" y="94"/>
      <point x="55" y="129"/>
      <point x="70" y="155" type="curve" smooth="yes"/>
      <point x="82" y="174"/>
      <point x="93" y="196"/>
      <point x="104" y="215" type="curve" smooth="yes"/>
      <point x="124" y="250"/>
      <point x="124" y="257"/>
      <point x="104" y="293" type="curve" smooth="yes"/>
      <point x="94" y="311"/>
      <point x="84" y="330"/>
      <point x="74" y="348" type="curve" smooth="yes"/>
      <point x="58" y="377"/>
      <point x="42" y="407"/>
      <point x="25" y="435" type="curve" smooth="yes"/>
      <point x="-9" y="493"/>
      <point x="69" y="539"/>
    </contour>
  </outline>
</glyph>
<glyph name="z" format="2">
  <advance width="336"/>
  <unicode hex="007A"/>
  <outline>
    <contour>
      <point x="64" y="498" type="curve" smooth="yes"/>
      <point x="101" y="498"/>
      <point x="132" y="498"/>
      <point x="162" y="498" type="curve" smooth="yes"/>
      <point x="191" y="498"/>
      <point x="211" y="498"/>
      <point x="237" y="498" type="curve" smooth="yes"/>
      <point x="323" y="498"/>
      <point x="358" y="474"/>
      <point x="294" y="369" type="curve" smooth="yes"/>
      <point x="273" y="335"/>
      <point x="259" y="312"/>
      <point x="242" y="282" type="curve" smooth="yes"/>
      <point x="218" y="244"/>
      <point x="194" y="204"/>
      <point x="172" y="168" type="curve" smooth="yes"/>
      <point x="155" y="139"/>
      <point x="143" y="119"/>
      <point x="126" y="88" type="curve" smooth="yes"/>
      <point x="122" y="83"/>
      <point x="102" y="90"/>
      <point x="107" y="90" type="curve" smooth="yes"/>
      <point x="139" y="90"/>
      <point x="154" y="90"/>
      <point x="173" y="90" type="curve" smooth="yes"/>
      <point x="222" y="90"/>
      <point x="250" y="90"/>
      <point x="275" y="90" type="curve" smooth="yes"/>
      <point x="343" y="90"/>
      <point x="343" y="0"/>
      <point x="275" y="0" type="curve" smooth="yes"/>
      <point x="237" y="0"/>
      <point x="206" y="0"/>
      <point x="173" y="0" type="curve" smooth="yes"/>
      <point x="145" y="0"/>
      <point x="128" y="0"/>
      <point x="107" y="0" type="curve" smooth="yes"/>
      <point x="12" y="0"/>
      <point x="-14" y="30"/>
      <point x="48" y="134" type="curve" smooth="yes"/>
      <point x="66" y="165"/>
      <point x="77" y="185"/>
      <point x="96" y="214" type="curve" smooth="yes"/>
      <point x="117" y="250"/>
      <point x="142" y="292"/>
      <point x="164" y="328" type="curve" smooth="yes"/>
      <point x="183" y="358"/>
      <point x="197" y="381"/>
      <point x="218" y="415" type="curve" smooth="yes"/>
      <point x="221" y="420"/>
      <point x="241" y="408"/>
      <point x="237" y="408" type="curve" smooth="yes"/>
      <point x="198" y="408"/>
      <point x="182" y="408"/>
      <point x="162" y="408" type="curve" smooth="yes"/>
      <point x="117" y="408"/>
      <point x="89" y="408"/>
      <point x="64" y="408" type="curve" smooth="yes"/>
      <point x="-3" y="408"/>
      <point x="-3" y="498"/>
    </contour>
  </outline>
</glyph>
<glyph name="asciitilde" format="2">
  <advance width="451"/>
  <unicode hex="007E"/>
  <outline>
    <contour>
      <point x="421" y="387" type="curve" smooth="yes"/>
      <point x="421" y="250"/>
      <point x="375" y="174"/>
      <point x="302" y="174" type="curve" smooth="yes"/>
      <point x="194" y="174"/>
      <point x="182" y="339"/>
      <point x="148" y="339" type="curve" smooth="yes"/>
      <point x="131" y="339"/>
      <point x="121" y="250"/>
      <point x="121" y="216" type="curve" smooth="yes"/>
      <point x="121" y="149"/>
      <point x="31" y="149"/>
      <point x="31" y="216" type="curve" smooth="yes"/>
      <point x="31" y="355"/>
      <point x="76" y="429"/>
      <point x="148" y="429" type="curve" smooth="yes"/>
      <point x="256" y="429"/>
      <point x="268" y="264"/>
      <point x="302" y="264" type="curve" smooth="yes"/>
      <point x="321" y="264"/>
      <point x="331" y="351"/>
      <point x="331" y="387" type="curve" smooth="yes"/>
      <point x="331" y="455"/>
      <point x="421" y="455"/>
    </contour>
  </outline>
</glyph>
<glyph name="brokenbar" format="2">
  <advance width="223"/>
  <unicode hex="00A6"/>
  <outline>
    <contour>
      <point x="157" y="230" type="curve" smooth="yes"/>
      <point x="157" y="137"/>
      <point x="157" y="-1"/>
      <point x="157" y="-120" type="curve" smooth="yes"/>
      <point x="157" y="-187"/>
      <point x="67" y="-187"/>
      <point x="67" y="-120" type="curve" smooth="yes"/>
      <point x="67" y="58"/>
      <point x="67" y="168"/>
      <point x="67" y="230" type="curve" smooth="yes"/>
      <point x="67" y="298"/>
      <point x="157" y="298"/>
    </contour>
    <contour>
      <point x="157" y="730" type="curve" smooth="yes"/>
      <point x="157" y="551"/>
      <point x="157" y="450"/>
      <point x="157" y="380" type="curve" smooth="yes"/>
      <point x="157" y="313"/>
      <point x="67" y="313"/>
      <point x="67" y="380" type="curve" smooth="yes"/>
      <point x="67" y="485"/>
      <point x="67" y="610"/>
      <point x="67" y="730" type="curve" smooth="yes"/>
      <point x="67" y="798"/>
      <point x="157" y="798"/>
    </contour>
  </outline>
</glyph>
<glyph name="logicalnot" format="2">
  <advance width="346"/>
  <unicode hex="00AC"/>
  <outline>
    <contour>
      <point x="56" y="433" type="curve" smooth="yes"/>
      <point x="276" y="433" type="line" smooth="yes"/>
      <point x="301" y="433"/>
      <point x="321" y="413"/>
      <point x="321" y="388" type="curve" smooth="yes"/>
      <point x="321" y="194" type="line" smooth="yes"/>
      <point x="321" y="127"/>
      <point x="231" y="127"/>
      <point x="231" y="194" type="curve" smooth="yes"/>
      <point x="231" y="388" type="line"/>
      <point x="276" y="343" type="line"/>
      <point x="56" y="343" type="line" smooth="yes"/>
      <point x="-11" y="343"/>
      <point x="-11" y="433"/>
    </contour>
  </outline>
</glyph>
<glyph name="threesuperior" format="2">
  <advance width="297"/>
  <unicode hex="00B3"/>
  <outline>
    <contour>
      <point x="99" y="373" type="curve" smooth="yes"/>
      <point x="139" y="352"/>
      <point x="182" y="356"/>
      <point x="182" y="399" type="curve" smooth="yes"/>
      <point x="182" y="410"/>
      <point x="179" y="424"/>
      <point x="171" y="430" type="curve" smooth="yes"/>
      <point x="165" y="434"/>
      <point x="154" y="439"/>
      <point x="140" y="440" type="curve" smooth="yes"/>
      <point x="66" y="446"/>
      <point x="43" y="484"/>
      <point x="103" y="560" type="curve" smooth="yes"/>
      <point x="112" y="572"/>
      <point x="135" y="597"/>
      <point x="146" y="612" type="curve" smooth="yes"/>
      <point x="148" y="615"/>
      <point x="180" y="590"/>
      <point x="177" y="590" type="curve" smooth="yes"/>
      <point x="131" y="590"/>
      <point x="102" y="590"/>
      <point x="80" y="590" type="curve" smooth="yes"/>
      <point x="12" y="590"/>
      <point x="13" y="680"/>
      <point x="80" y="680" type="curve" smooth="yes"/>
      <point x="113" y="680"/>
      <point x="146" y="680"/>
      <point x="177" y="680" type="curve" smooth="yes"/>
      <point x="268" y="680"/>
      <point x="265" y="618"/>
      <point x="218" y="558" type="curve" smooth="yes"/>
      <point x="203" y="539"/>
      <point x="182" y="516"/>
      <point x="173" y="504" type="curve" smooth="yes"/>
      <point x="171" y="501"/>
      <point x="144" y="530"/>
      <point x="148" y="530" type="curve" smooth="yes"/>
      <point x="180" y="527"/>
      <point x="205" y="516"/>
      <point x="225" y="502" type="curve" smooth="yes"/>
      <point x="256" y="479"/>
      <point x="272" y="441"/>
      <point x="272" y="399" type="curve" smooth="yes"/>
      <point x="272" y="287"/>
      <point x="160" y="239"/>
      <point x="57" y="293" type="curve" smooth="yes"/>
      <point x="-3" y="325"/>
      <point x="39" y="404"/>
    </contour>
  </outline>
</glyph>
<glyph name="cedilla" format="2">
  <advance width="294"/>
  <unicode hex="00B8"/>
  <outline>
    <contour>
      <point x="175" y="38" type="curve" smooth="yes"/>
      <point x="175" y="-62" type="line"/>
      <point x="136" y="-17" type="line"/>
      <point x="206" y="-26"/>
      <point x="247" y="-66"/>
      <point x="247" y="-132" type="curve" smooth="yes"/>
      <point x="247" y="-217"/>
      <point x="176" y="-270"/>
      <point x="64" y="-237" type="curve" smooth="yes"/>
      <point x="-1" y="-218"/>
      <point x="25" y="-132"/>
      <point x="90" y="-151" type="curve" smooth="yes"/>
      <point x="129" y="-163"/>
      <point x="157" y="-162"/>
      <point x="157" y="-132" type="curve" smooth="yes"/>
      <point x="157" y="-112"/>
      <point x="146" y="-109"/>
      <point x="124" y="-107" type="curve" smooth="yes"/>
      <point x="102" y="-104"/>
      <point x="85" y="-85"/>
      <point x="85" y="-62" type="curve" smooth="yes"/>
      <point x="85" y="38" type="line" smooth="yes"/>
      <point x="85" y="106"/>
      <point x="175" y="105"/>
    </contour>
  </outline>
</glyph>
<glyph name="onequarter" format="2">
  <advance width="635"/>
  <unicode hex="00BC"/>
  <outline>
    <contour>
      <point x="43" y="660" type="curve" smooth="yes"/>
      <point x="154" y="693"/>
      <point x="179" y="647"/>
      <point x="179" y="552" type="curve" smooth="yes"/>
      <point x="179" y="453"/>
      <point x="179" y="376"/>
      <point x="179" y="311" type="curve" smooth="yes"/>
      <point x="179" y="244"/>
      <point x="89" y="244"/>
      <point x="89" y="311" type="curve" smooth="yes"/>
      <point x="89" y="408"/>
      <point x="89" y="486"/>
      <point x="89" y="552" type="curve" smooth="yes"/>
      <point x="89" y="575"/>
      <point x="95" y="582"/>
      <point x="69" y="574" type="curve" smooth="yes"/>
      <point x="4" y="555"/>
      <point x="-22" y="641"/>
    </contour>
    <contour>
      <point x="473" y="622" type="curve" smooth="yes"/>
      <point x="208" y="22" type="line" smooth="yes"/>
      <point x="181" y="-40"/>
      <point x="99" y="-4"/>
      <point x="126" y="58" type="curve" smooth="yes"/>
      <point x="391" y="658" type="line" smooth="yes"/>
      <point x="418" y="720"/>
      <point x="500" y="684"/>
    </contour>
    <contour>
      <point x="579" y="88" type="curve" smooth="yes"/>
      <point x="527" y="88"/>
      <point x="485" y="88"/>
      <point x="449" y="88" type="curve" smooth="yes"/>
      <point x="379" y="88"/>
      <point x="335" y="138"/>
      <point x="371" y="229" type="curve" smooth="yes"/>
      <point x="384" y="264"/>
      <point x="390" y="278"/>
      <point x="409" y="327" type="curve" smooth="yes"/>
      <point x="456" y="447"/>
      <point x="569" y="437"/>
      <point x="569" y="300" type="curve" smooth="yes"/>
      <point x="569" y="221"/>
      <point x="569" y="115"/>
      <point x="569" y="40" type="curve" smooth="yes"/>
      <point x="569" y="-28"/>
      <point x="479" y="-27"/>
      <point x="479" y="40" type="curve" smooth="yes"/>
      <point x="479" y="152"/>
      <point x="479" y="247"/>
      <point x="479" y="300" type="curve" smooth="yes"/>
      <point x="479" y="306"/>
      <point x="495" y="299"/>
      <point x="493" y="293" type="curve" smooth="yes"/>
      <point x="474" y="246"/>
      <point x="468" y="232"/>
      <point x="455" y="197" type="curve" smooth="yes"/>
      <point x="453" y="192"/>
      <point x="446" y="178"/>
      <point x="449" y="178" type="curve" smooth="yes"/>
      <point x="503" y="178"/>
      <point x="544" y="178"/>
      <point x="579" y="178" type="curve" smooth="yes"/>
      <point x="647" y="178"/>
      <point x="647" y="88"/>
    </contour>
  </outline>
</glyph>
<glyph name="multiply" format="2">
  <advance width="365"/>
  <unicode hex="00D7"/>
  <outline>
    <contour>
      <point x="118" y="478" type="curve" smooth="yes"/>
      <point x="187" y="379"/>
      <point x="257" y="281"/>
      <point x="322" y="190" type="curve" smooth="yes"/>
      <point x="361" y="135"/>
      <point x="287" y="83"/>
      <point x="248" y="138" type="curve" smooth="yes"/>
      <point x="179" y="237"/>
      <point x="109" y="335"/>
      <point x="44" y="426" type="curve" smooth="yes"/>
      <point x="5" y="481"/>
      <point x="79" y="533"/>
    </contour>
    <contour>
      <point x="322" y="426" type="curve" smooth="yes"/>
      <point x="254" y="331"/>
      <point x="185" y="233"/>
      <point x="118" y="138" type="curve" smooth="yes"/>
      <point x="79" y="83"/>
      <point x="5" y="135"/>
      <point x="44" y="190" type="curve" smooth="yes"/>
      <point x="111" y="285"/>
      <point x="180" y="383"/>
      <point x="248" y="478" type="curve" smooth="yes"/>
      <point x="288" y="533"/>
      <point x="361" y="481"/>
    </contour>
  </outline>
</glyph>
<glyph name="germandbls" format="2">
  <advance width="389"/>
  <unicode hex="00DF"/>
  <outline>
    <contour>
      <point x="179" y="82" type="curve" smooth="yes"/>
      <point x="247" y="64"/>
      <point x="285" y="152"/>
      <point x="285" y="215" type="curve" smooth="yes"/>
      <point x="285" y="262"/>
      <point x="271" y="303"/>
      <point x="244" y="323" type="curve" smooth="yes"/>
      <point x="231" y="332"/>
      <point x="215" y="338"/>
      <point x="197" y="340" type="curve" smooth="yes"/>
      <point x="108" y="350"/>
      <point x="104" y="401"/>
      <point x="178" y="436" type="curve" smooth="yes"/>
      <point x="190" y="442"/>
      <point x="208" y="452"/>
      <point x="221" y="467" type="curve" smooth="yes"/>
      <point x="237" y="486"/>
      <point x="247" y="511"/>
      <point x="247" y="542" type="curve" smooth="yes"/>
      <point x="247" y="597"/>
      <point x="226" y="648"/>
      <point x="188" y="648" type="curve" smooth="yes"/>
      <point x="145" y="648"/>
      <point x="125" y="600"/>
      <point x="125" y="540" type="curve" smooth="yes"/>
      <point x="125" y="338"/>
      <point x="125" y="177"/>
      <point x="125" y="40" type="curve" smooth="yes"/>
      <point x="125" y="-28"/>
      <point x="35" y="-27"/>
      <point x="35" y="40" type="curve" smooth="yes"/>
      <point x="35" y="243"/>
      <point x="35" y="404"/>
      <point x="35" y="540" type="curve" smooth="yes"/>
      <point x="35" y="664"/>
      <point x="99" y="738"/>
      <point x="188" y="738" type="curve" smooth="yes"/>
      <point x="271" y="738"/>
      <point x="337" y="662"/>
      <point x="337" y="542" type="curve" smooth="yes"/>
      <point x="337" y="487"/>
      <point x="317" y="442"/>
      <point x="291" y="411" type="curve" smooth="yes"/>
      <point x="268" y="383"/>
      <point x="240" y="366"/>
      <point x="216" y="354" type="curve" smooth="yes"/>
      <point x="214" y="353"/>
      <point x="204" y="430"/>
      <point x="207" y="430" type="curve" smooth="yes"/>
      <point x="241" y="426"/>
      <point x="273" y="414"/>
      <point x="298" y="395" type="curve" smooth="yes"/>
      <point x="345" y="360"/>
      <point x="375" y="297"/>
      <point x="375" y="215" type="curve" smooth="yes"/>
      <point x="375" y="93"/>
      <point x="288" y="-40"/>
      <point x="155" y="-4" type="curve" smooth="yes"/>
      <point x="90" y="13"/>
      <point x="113" y="100"/>
    </contour>
  </outline>
</glyph>
<glyph name="thorn" format="2">
  <advance width="412"/>
  <unicode hex="00FE"/>
  <outline>
    <contour>
      <point x="33" y="-125" type="curve" smooth="yes"/>
      <point x="33" y="-70"/>
      <point x="33" y="-28"/>
      <point x="33" y="9" type="curve" smooth="yes"/>
      <point x="33" y="106"/>
      <point x="33" y="185"/>
      <point x="33" y="250" type="curve" smooth="yes"/>
      <point x="33" y="408"/>
      <point x="114" y="508"/>
      <point x="215" y="508" type="curve" smooth="yes"/>
      <point x="316" y="508"/>
      <point x="399" y="406"/>
      <point x="399" y="248" type="curve" smooth="yes"/>
      <point x="399" y="89"/>
      <point x="314" y="-11"/>
      <point x="216" y="-11" type="curve" smooth="yes"/>
      <point x="114" y="-11"/>
      <point x="33" y="92"/>
      <point x="33" y="246" type="curve" smooth="yes"/>
      <point x="33" y="343"/>
      <point x="33" y="564"/>
      <point x="33" y="694" type="curve" smooth="yes"/>
      <point x="33" y="762"/>
      <point x="123" y="762"/>
      <point x="123" y="694" type="curve" smooth="yes"/>
      <point x="123" y="500"/>
      <point x="123" y="311"/>
      <point x="123" y="246" type="curve" smooth="yes"/>
      <point x="123" y="160"/>
      <point x="159" y="79"/>
      <point x="216" y="79" type="curve" smooth="yes"/>
      <point x="271" y="79"/>
      <point x="309" y="159"/>
      <point x="309" y="248" type="curve" smooth="yes"/>
      <point x="309" y="337"/>
      <point x="272" y="418"/>
      <point x="215" y="418" type="curve" smooth="yes"/>
      <point x="158" y="418"/>
      <point x="123" y="339"/>
      <point x="123" y="250" type="curve" smooth="yes"/>
      <point x="123" y="153"/>
      <point x="123" y="74"/>
      <point x="123" y="9" type="curve" smooth="yes"/>
      <point x="123" y="-46"/>
      <point x="123" y="-88"/>
      <point x="123" y="-125" type="curve" smooth="yes"/>
      <point x="123" y="-192"/>
      <point x="33" y="-192"/>
    </contour>
  </outline>
</glyph>
<glyph name="guilsinglright" format="2">
  <advance width="281"/>
  <unicode hex="203A"/>
  <outline>
    <contour>
      <point x="35" y="89" type="curve" smooth="yes"/>
      <point x="68" y="133"/>
      <point x="102" y="177"/>
      <point x="144" y="230" type="curve" smooth="yes"/>
      <point x="170" y="264"/>
      <point x="171" y="253"/>
      <point x="143" y="290" type="curve" smooth="yes"/>
      <point x="101" y="343"/>
      <point x="69" y="386"/>
      <point x="36" y="428" type="curve" smooth="yes"/>
      <point x="-6" y="481"/>
      <point x="65" y="537"/>
      <point x="106" y="484" type="curve" smooth="yes"/>
      <point x="139" y="442"/>
      <point x="173" y="399"/>
      <point x="213" y="346" type="curve" smooth="yes"/>
      <point x="274" y="268"/>
      <point x="271" y="246"/>
      <point x="214" y="174" type="curve" smooth="yes"/>
      <point x="172" y="121"/>
      <point x="140" y="77"/>
      <point x="107" y="35" type="curve" smooth="yes"/>
      <point x="66" y="-19"/>
      <point x="-6" y="36"/>
    </contour>
  </outline>
</glyph>
<glyph name="four.superior" format="2">
  <advance width="306"/>
  <unicode hex="2074"/>
  <outline>
    <contour>
      <point x="253" y="359" type="curve" smooth="yes"/>
      <point x="202" y="359"/>
      <point x="159" y="359"/>
      <point x="124" y="359" type="curve" smooth="yes"/>
      <point x="52" y="359"/>
      <point x="9" y="409"/>
      <point x="45" y="500" type="curve" smooth="yes"/>
      <point x="59" y="536"/>
      <point x="64" y="549"/>
      <point x="79" y="583" type="curve" smooth="yes"/>
      <point x="102" y="636"/>
      <point x="108" y="654"/>
      <point x="135" y="669" type="curve" smooth="yes"/>
      <point x="161" y="683"/>
      <point x="243" y="691"/>
      <point x="243" y="590" type="curve" smooth="yes"/>
      <point x="243" y="546"/>
      <point x="243" y="531"/>
      <point x="243" y="515" type="curve" smooth="yes"/>
      <point x="243" y="441"/>
      <point x="243" y="367"/>
      <point x="243" y="311" type="curve" smooth="yes"/>
      <point x="243" y="244"/>
      <point x="153" y="244"/>
      <point x="153" y="311" type="curve" smooth="yes"/>
      <point x="153" y="394"/>
      <point x="153" y="465"/>
      <point x="153" y="515" type="curve" smooth="yes"/>
      <point x="153" y="539"/>
      <point x="153" y="561"/>
      <point x="153" y="590" type="curve" smooth="yes"/>
      <point x="153" y="594"/>
      <point x="178" y="590"/>
      <point x="177" y="589" type="curve" smooth="yes"/>
      <point x="176" y="589"/>
      <point x="162" y="549"/>
      <point x="161" y="547" type="curve" smooth="yes"/>
      <point x="148" y="515"/>
      <point x="143" y="502"/>
      <point x="129" y="468" type="curve" smooth="yes"/>
      <point x="127" y="463"/>
      <point x="121" y="449"/>
      <point x="124" y="449" type="curve" smooth="yes"/>
      <point x="176" y="449"/>
      <point x="219" y="449"/>
      <point x="253" y="449" type="curve" smooth="yes"/>
      <point x="321" y="449"/>
      <point x="321" y="359"/>
    </contour>
  </outline>
</glyph>
<glyph name="N" format="2">
  <advance width="494"/>
  <outline>
    <contour>
      <point x="246.1713102537206" y="74.3140613397299" type="curve" smooth="yes"/>
      <point x="250.5173337184695" y="78.92539167135001"/>
      <point x="253.76205990821916" y="113.12128800853732"/>
      <point x="253.75935731200195" y="135.02001101943407" type="curve" smooth="yes"/>
      <point x="253.70814074505824" y="550.0200046986226" type="line" smooth="yes"/>
      <point x="253.70706103634618" y="558.7687189417079"/>
      <point x="294.35699523057406" y="581.3855286514566"/>
      <point x="298.3044826090448" y="572.7122343587423" type="curve" smooth="yes"/>
      <point x="493.53863801368516" y="142.66908694557057" type="line" smooth="yes"/>
      <point x="518.4162573050615" y="88.17635262753623"/>
      <point x="556.4092144860297" y="68.9427040594234"/>
      <point x="556.4022937939876" y="125.02001117174277" type="curve" smooth="yes"/>
      <point x="556.3510772270438" y="540.0200048509313" type="line" smooth="yes"/>
      <point x="556.3504360822725" y="545.2151026867247"/>
      <point x="554.4180057654343" y="600.5224736954915"/>
      <point x="553.0709209175744" y="601.6477457641819" type="curve" smooth="yes"/>
      <point x="495.5111325475303" y="649.7296629763287"/>
      <point x="559.6203554970594" y="726.4760474697207"/>
      <point x="617.1801438671035" y="678.3941302575739" type="curve" smooth="yes"/>
      <point x="640.6709109170492" y="658.7713840917258"/>
      <point x="656.3398960394902" y="630.6256248980741"/>
      <point x="656.3510764655002" y="540.0323461924576" type="curve" smooth="yes"/>
      <point x="656.402293032444" y="125.03235251326896" type="line" smooth="yes"/>
      <point x="656.4227325074665" y="-40.58558151447871"/>
      <point x="476.1284793492951" y="-59.9858755019499"/>
      <point x="402.48285455261464" y="101.33091695353238" type="curve" smooth="yes"/>
      <point x="207.28793120596362" y="531.2877564418116" type="line" smooth="yes"/>
      <point x="119.10591108467258" y="725.0384992584558"/>
      <point x="353.68402061687755" y="745.4678779247638"/>
      <point x="353.7081399835147" y="550.0323460401489" type="curve" smooth="yes"/>
      <point x="353.7593565504584" y="135.0323523609603" type="line" smooth="yes"/>
      <point x="353.76931621721224" y="54.33069884301766"/>
      <point x="334.9605067620563" y="22.721608463423916"/>
      <point x="318.94444593245925" y="5.7278329590710655" type="curve" smooth="yes"/>
      <point x="267.50477464696513" y="-48.85201879998295"/>
      <point x="194.7316389682265" y="19.734209580675888"/>
    </contour>
  </outline>
</glyph>
<glyph name="O" format="2">
  <advance width="520"/>
  <outline>
    <contour>
      <point x="481.65819587731875" y="95.83583478099632" type="curve" smooth="yes"/>
      <point x="524.8420401366062" y="105.40544260025182"/>
      <point x="553.973399589168" y="124.16188374888235"/>
      <point x="571.6681642681096" y="154.3255682936383" type="curve" smooth="yes"/>
      <point x="598.811069554499" y="200.5951880112267"/>
      <point x="613.5685595611396" y="266.8232077768488"/>
      <point x="613.5594026805675" y="341.0200078818747" type="curve" smooth="yes"/>
      <point x="613.5427937253343" y="475.599827031529"/>
      <point x="562.0703611880365" y="590.0261739986073"/>
      <point x="474.0178843309186" y="590.0261739986073" type="curve" smooth="yes"/>
      <point x="389.6264168635967" y="590.0261739986073"/>
      <point x="334.53363261212405" y="475.00960566222136"/>
      <point x="334.55016720303445" y="341.03234922340084" type="curve" smooth="yes"/>
      <point x="334.5593057835762" y="266.9838314604786"/>
      <point x="350.49396882771373" y="200.96603731261607"/>
      <point x="378.30541775310303" y="154.846143139597" type="curve" smooth="yes"/>
      <point x="399.056524802441" y="120.43445665551849"/>
      <point x="427.5440892369169" y="96.07090333972083"/>
      <point x="440.8515646829851" y="86.24858566152558" type="curve" smooth="yes"/>
      <point x="501.19433158518297" y="41.70927176260015"/>
      <point x="441.808579719949" y="-38.74775077366364"/>
      <point x="381.46581281775116" y="5.7915631252617885" type="curve" smooth="yes"/>
      <point x="362.2430217868407" y="19.98000637525108"/>
      <point x="322.6458179225893" y="53.49817016373521"/>
      <point x="292.670621193045" y="103.20622042356777" type="curve" smooth="yes"/>
      <point x="256.6830781470061" y="162.8845809894961"/>
      <point x="234.56199313274922" y="245.20248224207236"/>
      <point x="234.550167964578" y="341.0200078818747" type="curve" smooth="yes"/>
      <point x="234.52404891976423" y="552.6586256075694"/>
      <point x="340.7079928062867" y="690.0261739986073"/>
      <point x="474.0178843309186" y="690.0261739986073" type="curve" smooth="yes"/>
      <point x="612.1178952951384" y="690.0261739986073"/>
      <point x="713.5333527153939" y="552.105054540805"/>
      <point x="713.5594019190239" y="341.03234922340084" type="curve" smooth="yes"/>
      <point x="713.5712152708896" y="245.31056929397295"/>
      <point x="692.9394724887466" y="163.41953605829403"/>
      <point x="657.9222318154109" y="103.72679526952645" type="curve" smooth="yes"/>
      <point x="627.5977767228273" y="52.03369202679792"/>
      <point x="577.2999347769121" y="14.604257565085428"/>
      <point x="503.2934944694949" y="-1.7956860246706512" type="curve" smooth="yes"/>
      <point x="430.0698538652447" y="-18.02215996880282"/>
      <point x="408.43455527306855" y="79.60936083686416"/>
    </contour>
  </outline>
</glyph>
<glyph name="R" format="2">
  <advance width="453"/>
  <outline>
    <contour>
      <point x="242.57323111038852" y="68.88174283350419" type="curve" smooth="yes"/>
      <point x="251.78292636149388" y="81.91076595638792"/>
      <point x="254.60792632919433" y="105.54511223957003"/>
      <point x="254.60342483734348" y="142.02001091281798" type="curve" smooth="yes"/>
      <point x="254.55307216429992" y="550.0200046986226" type="line" smooth="yes"/>
      <point x="254.5422242921851" y="637.9186501519446"/>
      <point x="301.5075744643942" y="690.0261739986073"/>
      <point x="368.1815748830285" y="690.0261739986073" type="curve" smooth="yes"/>
      <point x="431.8211851898177" y="690.0261739986073" type="line" smooth="yes"/>
      <point x="528.3775246446222" y="690.0261739986073"/>
      <point x="600.619007242763" y="608.5674156801615"/>
      <point x="600.6353638483348" y="476.03234716723324" type="curve" smooth="yes"/>
      <point x="600.652449327083" y="337.59133099484535"/>
      <point x="525.1334605470794" y="260.0261790247947"/>
      <point x="454.4893286145136" y="260.0261790247947" type="curve" smooth="yes"/>
      <point x="414.1842420868804" y="260.0261790247947" type="line" smooth="yes"/>
      <point x="383.79176275783993" y="260.0261790247947"/>
      <point x="341.3529977949929" y="260.01954543663"/>
      <point x="314.49452809933734" y="260.012916045634" type="curve" smooth="yes"/>
      <point x="312.52131964057253" y="260.01242900484056"/>
      <point x="307.1859218838567" y="359.99999908614774"/>
      <point x="309.53244008674915" y="359.99999908614774" type="curve" smooth="yes"/>
      <point x="312.36086721149536" y="359.99999908614774" type="line" smooth="yes"/>
      <point x="361.6474761791201" y="359.99999908614774"/>
      <point x="418.4203516323923" y="347.5312404251892"/>
      <point x="475.9962175050622" y="293.46118653688825" type="curve" smooth="yes"/>
      <point x="532.4734563555451" y="240.4228639372519"/>
      <point x="576.703020601499" y="175.4285166496258"/>
      <point x="597.7309392100791" y="128.45558488777155" type="curve" smooth="yes"/>
      <point x="622.2324851948383" y="73.72313756260392"/>
      <point x="616.4726023925688" y="44.64525230796311"/>
      <point x="608.0826143902276" y="22.38599280211411" type="curve" smooth="yes"/>
      <point x="581.630182869298" y="-47.794267005260004"/>
      <point x="488.05650312613255" y="-12.524358310687255"/>
      <point x="514.5089346470621" y="57.65590149668686" type="curve" smooth="yes"/>
      <point x="516.5161902762317" y="62.98129933179567"/>
      <point x="512.3209004252918" y="74.50236094869885"/>
      <point x="506.4590486458216" y="87.59677931508978" type="curve" smooth="yes"/>
      <point x="489.79733675187833" y="124.81631922288254"/>
      <point x="452.2900653440872" y="178.54051865266766"/>
      <point x="407.5396789740262" y="220.5660403860725" type="curve" smooth="yes"/>
      <point x="372.608007953334" y="253.3707113340397"/>
      <point x="342.263389459099" y="259.99999908614774"/>
      <point x="312.36086721149536" y="259.99999908614774" type="curve" smooth="yes"/>
      <point x="309.53244008674915" y="259.99999908614774" type="line" smooth="yes"/>
      <point x="201.31994369738752" y="259.99999908614774"/>
      <point x="223.4729748390372" y="359.9904525301438"/>
      <point x="314.4698454168346" y="360.01291299945984" type="curve" smooth="yes"/>
      <point x="341.34431971544274" y="360.0195463408213"/>
      <point x="383.773652285802" y="360.0261790247947"/>
      <point x="414.1842420868804" y="360.0261790247947" type="curve" smooth="yes"/>
      <point x="454.4893286145136" y="360.0261790247947" type="line" smooth="yes"/>
      <point x="478.7483693793234" y="360.0261790247947"/>
      <point x="500.6412317260011" y="428.4796629412692"/>
      <point x="500.63536460987837" y="476.0200058257071" type="curve" smooth="yes"/>
      <point x="500.6275326392968" y="539.4812633015417"/>
      <point x="478.0548861100213" y="590.0261739986073"/>
      <point x="431.8211851898177" y="590.0261739986073" type="curve" smooth="yes"/>
      <point x="368.1815748830285" y="590.0261739986073" type="line" smooth="yes"/>
      <point x="356.802787512334" y="590.0261739986073"/>
      <point x="354.55122007196104" y="565.033395782259"/>
      <point x="354.55307140275636" y="550.0323460401489" type="curve" smooth="yes"/>
      <point x="354.6034240757999" y="142.03235225434415" type="line" smooth="yes"/>
      <point x="354.61236622197015" y="69.57551210212795"/>
      <point x="342.52730965313606" y="37.04211084265645"/>
      <point x="324.2323879142748" y="11.160151465296778" type="curve" smooth="yes"/>
      <point x="280.9411943881192" y="-50.08421613761789"/>
      <point x="199.2820375842329" y="7.637375230589527"/>
    </contour>
  </outline>
</glyph>
